HIERARCHY
ROOT Joint1
{
	OFFSET 0.000000 0.000000 0.000000
	CHANNELS 6 Xposition Yposition Zposition Xrotation Yrotation Zrotation
	JOINT Joint2
	{
		OFFSET -0.000000 0.000000 1.456275
		CHANNELS 6 Xposition Yposition Zposition Xrotation Yrotation Zrotation
		JOINT Joint3
		{
			OFFSET -0.000000 0.000002 1.471446
			CHANNELS 6 Xposition Yposition Zposition Xrotation Yrotation Zrotation
			JOINT Joint4
			{
				OFFSET 0.625745 0.000000 0.917755
				CHANNELS 6 Xposition Yposition Zposition Xrotation Yrotation Zrotation
				JOINT Joint5
				{
					OFFSET -0.629534 0.000001 0.940221
					CHANNELS 6 Xposition Yposition Zposition Xrotation Yrotation Zrotation
					JOINT Joint6
					{
						OFFSET -0.000001 0.113772 1.960660
						CHANNELS 6 Xposition Yposition Zposition Xrotation Yrotation Zrotation
						JOINT Joint7
						{
							OFFSET -0.669733 -0.113771 0.388340
							CHANNELS 6 Xposition Yposition Zposition Xrotation Yrotation Zrotation
							End Site
							{
								OFFSET 0.005509 0.005509 0.438980
							}
						}
					}
				}
			}
		}
	}
}
MOTION
Frames: 24
Frame Time: 0.041667
0.000000 0.000000 0.000000 -0.000000 1.019410 15.372049 -0.000000 0.000000 1.456275 0.000000 -6.953673 -0.000001 -0.000000 0.000002 1.471446 -0.000000 -1.133461 -13.888887 0.625745 0.000000 0.917755 0.000014 96.311828 -0.000010 -0.629534 0.000001 0.940221 0.000000 1.709736 -30.404116 -0.000001 0.113772 1.960661 -88.303882 -221.786597 0.000002 -0.669733 -0.113771 0.388340 -0.024601 3.305063 92.983579 
0.000000 0.000000 0.000000 -0.000000 1.019410 14.695939 -0.000000 -0.000000 1.456275 -0.000000 -8.625974 0.000001 -0.000000 0.000002 1.471445 -0.000000 -1.133461 -13.279305 0.625745 0.000000 0.917755 0.000012 98.014191 -0.000008 -0.629534 0.000001 0.940221 0.000000 1.709736 -29.067899 -0.000001 0.113772 1.960661 -88.303882 -223.908231 0.000002 -0.669733 -0.113771 0.388339 -0.049311 3.326579 94.829452 
0.000000 0.000000 0.000000 -0.000000 1.019410 14.090928 -0.000000 -0.000000 1.456275 0.000000 -10.122419 -0.000000 -0.000000 0.000002 1.471446 -0.000000 -1.133462 -12.733818 0.625745 0.000000 0.917755 0.000009 99.537542 -0.000006 -0.629534 0.000001 0.940221 0.000000 1.709736 -27.872185 -0.000001 0.113772 1.960660 -88.303882 -225.806764 0.000002 -0.669733 -0.113771 0.388340 -0.072001 3.345149 96.481265 
0.000000 0.000000 0.000000 -0.000000 1.019410 13.639399 -0.000000 -0.000000 1.456275 -0.000000 -11.239240 0.000001 -0.000000 0.000002 1.471446 -0.000000 -1.133459 -12.326717 0.625745 0.000000 0.917755 0.000008 100.674441 -0.000005 -0.629533 0.000001 0.940221 0.000000 1.709736 -26.979812 -0.000001 0.113772 1.960661 -88.303875 -227.223660 0.000003 -0.669733 -0.113771 0.388340 -0.089280 3.358579 97.714059 
0.000000 0.000000 0.000000 -0.000000 1.019410 13.255144 -0.000000 0.000000 1.456275 -0.000000 -12.189662 0.000001 -0.000000 0.000002 1.471446 0.000000 -1.133461 -11.980268 0.625745 0.000000 0.917755 0.000009 101.641957 -0.000005 -0.629534 0.000001 0.940221 0.000000 1.709736 -26.220394 -0.000001 0.113772 1.960660 -88.303882 -228.429461 0.000003 -0.669733 -0.113771 0.388340 -0.104210 3.369708 98.763190 
0.000000 0.000000 0.000000 -0.000000 1.019410 12.809805 -0.000000 0.000000 1.456275 0.000000 -13.291166 -0.000001 -0.000000 0.000002 1.471446 0.000000 -1.133462 -11.578748 0.625744 0.000000 0.917755 0.000008 102.763263 -0.000004 -0.629533 0.000001 0.940221 0.000000 1.709736 -25.340255 -0.000001 0.113772 1.960660 -88.303882 -229.826932 0.000003 -0.669733 -0.113771 0.388340 -0.121765 3.382271 99.979114 
0.000000 0.000000 0.000000 -0.000000 1.019410 12.213306 -0.000000 -0.000000 1.456275 0.000000 -14.766553 -0.000000 -0.000000 0.000002 1.471446 0.000000 -1.133462 -11.040939 0.625745 0.000000 0.917755 0.000008 104.265174 -0.000004 -0.629534 0.000001 0.940221 0.000000 1.709736 -24.161367 -0.000001 0.113772 1.960661 -88.303875 -231.698731 0.000003 -0.669733 -0.113771 0.388341 -0.145691 3.398509 101.607800 
0.000000 0.000000 0.000000 -0.000000 1.019410 11.528682 -0.000000 -0.000000 1.456275 -0.000000 -16.459916 0.000001 -0.000000 0.000002 1.471446 -0.000000 -1.133462 -10.423677 0.625744 0.000000 0.917755 0.000007 105.988970 -0.000004 -0.629534 0.000001 0.940221 0.000000 1.709736 -22.808319 -0.000001 0.113772 1.960660 -88.303875 -233.847099 0.000003 -0.669734 -0.113771 0.388340 -0.173707 3.416296 103.477134 
0.000000 0.000000 0.000000 -0.000000 1.019410 10.850652 -0.000000 0.000000 1.456275 -0.000000 -18.136970 -0.000001 -0.000000 0.000002 1.471446 -0.000000 -1.133462 -9.812357 0.625745 0.000000 0.917755 0.000007 107.696183 -0.000002 -0.629534 0.000001 0.940221 0.000000 1.709736 -21.468297 -0.000001 0.113772 1.960660 -88.303875 -235.974785 0.000004 -0.669733 -0.113771 0.388340 -0.202013 3.433000 105.328518 
0.000000 0.000000 0.000000 -0.000000 1.019410 10.247562 -0.000000 -0.000000 1.456275 0.000000 -19.628661 -0.000001 -0.000000 0.000002 1.471446 -0.000000 -1.133461 -9.268608 0.625745 0.000000 0.917755 0.000007 109.214691 -0.000003 -0.629534 0.000001 0.940221 0.000000 1.709736 -20.276385 -0.000001 0.113773 1.960661 -88.303875 -237.867294 0.000003 -0.669733 -0.113771 0.388340 -0.227634 3.447095 106.975297 
0.000000 0.000000 0.000000 -0.000000 1.019410 9.761208 -0.000000 0.000000 1.456275 0.000000 -20.831619 -0.000001 -0.000000 0.000002 1.471446 -0.000000 -1.133459 -8.830105 0.625745 0.000000 0.917755 0.000005 110.439282 -0.000002 -0.629534 0.000001 0.940221 0.000000 1.709736 -19.315182 0.000000 0.113772 1.960660 -88.303875 -239.393486 0.000004 -0.669733 -0.113771 0.388341 -0.248584 3.457909 108.303345 
0.000000 0.000000 0.000000 -0.000000 1.019410 9.353513 -0.000000 -0.000000 1.456275 -0.000000 -21.840018 0.000000 -0.000000 0.000002 1.471445 -0.000000 -1.133461 -8.462523 0.625745 0.000000 0.917755 0.000005 111.465805 -0.000003 -0.629534 0.000001 0.940221 0.000000 1.709736 -18.509442 -0.000001 0.113772 1.960661 -88.303875 -240.672835 0.000004 -0.669733 -0.113771 0.388340 -0.266336 3.466605 109.416612 
0.000000 0.000000 0.000000 -0.000000 1.019410 8.966441 -0.000000 0.000000 1.456275 -0.000000 -22.797413 -0.000001 -0.000000 0.000002 1.471446 -0.000000 -1.133458 -8.113536 0.625745 0.000000 0.917755 0.000005 112.440411 -0.000002 -0.629533 0.000001 0.940221 0.000000 1.709736 -17.744452 -0.000002 0.113772 1.960661 -88.303875 -241.887461 0.000004 -0.669733 -0.113771 0.388339 -0.283344 3.474547 110.473590 
0.000000 0.000000 0.000000 -0.000000 1.019410 8.554424 -0.000000 0.000000 1.456275 0.000000 -23.816497 -0.000001 -0.000000 0.000002 1.471446 -0.000000 -1.133457 -7.742057 0.625745 0.000000 0.917755 0.000005 113.477822 -0.000003 -0.629534 0.000001 0.940221 0.000000 1.709736 -16.930169 -0.000001 0.113772 1.960660 -88.303875 -243.180361 0.000005 -0.669734 -0.113771 0.388340 -0.301606 3.482650 111.598686 
0.000000 0.000000 0.000000 -0.000000 1.019410 8.121786 -0.000000 -0.000000 1.456275 -0.000000 -24.886592 -0.000000 -0.000000 0.000002 1.471446 -0.000000 -1.133459 -7.351986 0.625745 0.000000 0.917755 0.000004 114.567155 -0.000002 -0.629534 0.000001 0.940221 0.000000 1.709736 -16.075123 -0.000001 0.113772 1.960660 -88.303875 -244.537984 0.000005 -0.669733 -0.113771 0.388340 -0.320950 3.490763 112.780104 
0.000000 0.000000 0.000000 -0.000000 1.019410 7.685318 -0.000000 -0.000000 1.456275 -0.000000 -25.966153 -0.000001 -0.000001 0.000002 1.471445 -0.000000 -1.133459 -6.958466 0.625745 0.000000 0.917755 0.000005 115.666112 -0.000002 -0.629533 0.000001 0.940221 0.000000 1.709736 -15.212522 -0.000001 0.113772 1.960660 -88.303875 -245.907629 0.000005 -0.669733 -0.113771 0.388340 -0.340631 3.498551 113.972006 
0.000000 0.000000 0.000000 -0.000000 1.019410 7.257496 -0.000000 0.000000 1.456275 0.000000 -27.024337 -0.000000 -0.000000 0.000002 1.471446 -0.000000 -1.133458 -6.572737 0.625745 0.000000 0.917755 0.000005 116.743342 -0.000002 -0.629534 0.000001 0.940221 0.000000 1.709736 -14.366999 -0.000001 0.113772 1.960661 -88.303875 -247.250116 0.000005 -0.669733 -0.113771 0.388340 -0.360075 3.505788 115.140296 
0.000000 0.000000 0.000000 -0.000000 1.019410 6.833503 -0.000000 -0.000000 1.456275 -0.000000 -28.073054 -0.000000 -0.000001 0.000002 1.471446 -0.000000 -1.133463 -6.190460 0.625745 0.000000 0.917754 0.000004 117.810914 -0.000002 -0.629533 0.000001 0.940221 0.000000 1.709736 -13.529041 -0.000001 0.113772 1.960660 -88.303875 -248.580637 0.000006 -0.669733 -0.113771 0.388340 -0.379488 3.512567 116.298177 
0.000000 0.000000 0.000000 -0.000000 1.019410 6.404197 -0.000000 -0.000000 1.456275 0.000000 -29.134903 0.000000 -0.000001 0.000002 1.471446 -0.000000 -1.133461 -5.803395 0.625745 0.000000 0.917755 0.000004 118.891846 -0.000002 -0.629534 0.000001 0.940221 0.000000 1.709736 -12.680587 -0.000001 0.113772 1.960660 -88.303875 -249.927769 0.000006 -0.669733 -0.113771 0.388340 -0.399279 3.519027 117.470538 
0.000000 0.000000 0.000000 -0.000000 1.019410 5.965260 -0.000000 0.000000 1.456275 -0.000000 -30.220578 0.000000 -0.000000 0.000002 1.471446 -0.000000 -1.133459 -5.407646 0.625745 0.000000 0.917755 0.000004 119.997025 -0.000002 -0.629534 0.000001 0.940221 0.000000 1.709736 -11.813097 -0.000001 0.113772 1.960660 -88.303875 -251.305172 0.000007 -0.669734 -0.113771 0.388340 -0.419648 3.525219 118.669209 
0.000000 0.000000 0.000000 -0.000000 1.019410 5.531632 -0.000000 -0.000000 1.456275 -0.000000 -31.293120 0.000000 -0.000000 0.000002 1.471446 -0.000000 -1.133460 -5.016683 0.625745 0.000000 0.917755 0.000004 121.088858 -0.000001 -0.629534 0.000001 0.940221 0.000000 1.709736 -10.956102 -0.000000 0.113772 1.960660 -88.303875 -252.665909 0.000007 -0.669733 -0.113771 0.388339 -0.439893 3.530912 119.853414 
0.000000 0.000000 0.000000 -0.000000 1.019410 5.123075 -0.000000 0.000000 1.456275 -0.000000 -32.303653 -0.000000 -0.000000 0.000002 1.471446 0.000000 -1.133461 -4.648325 0.625745 0.000000 0.917755 0.000004 122.117567 -0.000002 -0.629533 0.000001 0.940221 0.000000 1.709736 -10.148654 -0.000001 0.113772 1.960660 -88.303868 -253.947963 0.000007 -0.669733 -0.113771 0.388340 -0.459072 3.535896 120.969153 
0.000000 0.000000 0.000000 -0.000000 1.019410 4.754773 -0.000000 -0.000000 1.456275 -0.000000 -33.214612 0.000000 -0.000001 0.000002 1.471446 0.000000 -1.133460 -4.316261 0.625745 0.000000 0.917755 0.000004 123.044902 -0.000001 -0.629534 0.000001 0.940221 0.000000 1.709736 -9.420760 -0.000001 0.113772 1.960660 -88.303868 -255.103686 0.000008 -0.669733 -0.113771 0.388339 -0.476442 3.540069 121.974966 
0.000000 0.000000 0.000000 -0.000000 1.019410 4.423610 -0.000000 -0.000000 1.456275 -0.000000 -34.033719 -0.000001 -0.000000 0.000002 1.471446 -0.000000 -1.133460 -4.017682 0.625745 0.000000 0.917754 0.000004 123.878745 -0.000001 -0.629534 0.000001 0.940221 0.000000 1.709736 -8.766271 -0.000001 0.113772 1.960660 -88.303868 -256.142858 0.000009 -0.669733 -0.113771 0.388340 -0.492120 3.543554 122.879365 
